<mxfile host="app.diagrams.net" agent="Mozilla/5.0 (X11; Linux x86_64) AppleWebKit/537.36 (KHTML, like Gecko) Chrome/140.0.0.0 Safari/537.36" version="28.2.5">
  <diagram name="Página-1" id="rsJRMbZFAaspJuVNrBk2">
    <mxGraphModel dx="1163" dy="596" grid="0" gridSize="10" guides="1" tooltips="1" connect="1" arrows="1" fold="1" page="1" pageScale="1" pageWidth="827" pageHeight="1169" background="#7EA6E0" math="0" shadow="0">
      <root>
        <mxCell id="0" />
        <mxCell id="1" parent="0" />
        <mxCell id="lu7oN-adnSqv5j8QDFee-1" value="" style="edgeStyle=orthogonalEdgeStyle;rounded=0;orthogonalLoop=1;jettySize=auto;html=1;" parent="1" source="lu7oN-adnSqv5j8QDFee-2" target="lu7oN-adnSqv5j8QDFee-7" edge="1">
          <mxGeometry relative="1" as="geometry" />
        </mxCell>
        <mxCell id="lu7oN-adnSqv5j8QDFee-2" value="Salvar Cachorro" style="ellipse;whiteSpace=wrap;html=1;fillColor=#f8cecc;strokeColor=#b85450;" parent="1" vertex="1">
          <mxGeometry x="228" y="197" width="120" height="80" as="geometry" />
        </mxCell>
        <mxCell id="lu7oN-adnSqv5j8QDFee-3" style="edgeStyle=orthogonalEdgeStyle;rounded=0;orthogonalLoop=1;jettySize=auto;html=1;endArrow=none;endFill=0;startArrow=none;startFill=0;" parent="1" source="lu7oN-adnSqv5j8QDFee-4" target="lu7oN-adnSqv5j8QDFee-2" edge="1">
          <mxGeometry relative="1" as="geometry" />
        </mxCell>
        <mxCell id="lu7oN-adnSqv5j8QDFee-4" value="Cachorro" style="rounded=0;whiteSpace=wrap;html=1;" parent="1" vertex="1">
          <mxGeometry x="228" y="107" width="120" height="60" as="geometry" />
        </mxCell>
        <mxCell id="lu7oN-adnSqv5j8QDFee-5" value="" style="edgeStyle=orthogonalEdgeStyle;rounded=0;orthogonalLoop=1;jettySize=auto;html=1;" parent="1" source="lu7oN-adnSqv5j8QDFee-7" target="lu7oN-adnSqv5j8QDFee-8" edge="1">
          <mxGeometry relative="1" as="geometry" />
        </mxCell>
        <mxCell id="lu7oN-adnSqv5j8QDFee-6" value="" style="edgeStyle=orthogonalEdgeStyle;rounded=0;orthogonalLoop=1;jettySize=auto;html=1;" parent="1" source="lu7oN-adnSqv5j8QDFee-7" edge="1">
          <mxGeometry relative="1" as="geometry">
            <mxPoint x="401" y="360" as="targetPoint" />
          </mxGeometry>
        </mxCell>
        <mxCell id="lu7oN-adnSqv5j8QDFee-7" value="Dados Válidos?" style="rhombus;whiteSpace=wrap;html=1;" parent="1" vertex="1">
          <mxGeometry x="248" y="320" width="80" height="80" as="geometry" />
        </mxCell>
        <mxCell id="lu7oN-adnSqv5j8QDFee-8" value="Retornar 422" style="whiteSpace=wrap;html=1;" parent="1" vertex="1">
          <mxGeometry x="76" y="330" width="120" height="60" as="geometry" />
        </mxCell>
        <UserObject label="Não" placeholders="1" name="Variable" id="lu7oN-adnSqv5j8QDFee-9">
          <mxCell style="text;html=1;strokeColor=none;fillColor=none;align=center;verticalAlign=middle;whiteSpace=wrap;overflow=hidden;" parent="1" vertex="1">
            <mxGeometry x="186" y="330" width="80" height="20" as="geometry" />
          </mxCell>
        </UserObject>
        <mxCell id="lu7oN-adnSqv5j8QDFee-11" value="Sim" style="text;html=1;align=center;verticalAlign=middle;whiteSpace=wrap;rounded=0;" parent="1" vertex="1">
          <mxGeometry x="323" y="325" width="60" height="30" as="geometry" />
        </mxCell>
        <mxCell id="lu7oN-adnSqv5j8QDFee-14" value="" style="edgeStyle=orthogonalEdgeStyle;rounded=0;orthogonalLoop=1;jettySize=auto;html=1;" parent="1" source="lu7oN-adnSqv5j8QDFee-12" target="lu7oN-adnSqv5j8QDFee-13" edge="1">
          <mxGeometry relative="1" as="geometry" />
        </mxCell>
        <mxCell id="lu7oN-adnSqv5j8QDFee-16" value="" style="edgeStyle=orthogonalEdgeStyle;rounded=0;orthogonalLoop=1;jettySize=auto;html=1;" parent="1" source="lu7oN-adnSqv5j8QDFee-12" target="lu7oN-adnSqv5j8QDFee-15" edge="1">
          <mxGeometry relative="1" as="geometry" />
        </mxCell>
        <mxCell id="lu7oN-adnSqv5j8QDFee-12" value="Cachorro já cadastrado?" style="rhombus;whiteSpace=wrap;html=1;" parent="1" vertex="1">
          <mxGeometry x="369.5" y="305" width="105" height="107" as="geometry" />
        </mxCell>
        <mxCell id="lu7oN-adnSqv5j8QDFee-13" value="retornar 409" style="whiteSpace=wrap;html=1;" parent="1" vertex="1">
          <mxGeometry x="522" y="328.5" width="120" height="60" as="geometry" />
        </mxCell>
        <mxCell id="5wVH7uqxwEc0x4y0ZoIM-17" value="" style="edgeStyle=orthogonalEdgeStyle;rounded=0;orthogonalLoop=1;jettySize=auto;html=1;" edge="1" parent="1" source="lu7oN-adnSqv5j8QDFee-15" target="5wVH7uqxwEc0x4y0ZoIM-16">
          <mxGeometry relative="1" as="geometry" />
        </mxCell>
        <mxCell id="lu7oN-adnSqv5j8QDFee-15" value="Salva Cachorro" style="rounded=0;whiteSpace=wrap;html=1;" parent="1" vertex="1">
          <mxGeometry x="362" y="440.5" width="120" height="60" as="geometry" />
        </mxCell>
        <mxCell id="5wVH7uqxwEc0x4y0ZoIM-1" value="Cachorro" style="shape=table;startSize=30;container=1;collapsible=0;childLayout=tableLayout;fontSize=16;fillColor=#f8cecc;strokeColor=#b85450;" vertex="1" parent="1">
          <mxGeometry x="505" y="107" width="201.50000000000023" height="150" as="geometry" />
        </mxCell>
        <mxCell id="5wVH7uqxwEc0x4y0ZoIM-2" value="" style="shape=tableRow;horizontal=0;startSize=0;swimlaneHead=0;swimlaneBody=0;strokeColor=inherit;top=0;left=0;bottom=0;right=0;collapsible=0;dropTarget=0;fillColor=none;points=[[0,0.5],[1,0.5]];portConstraint=eastwest;fontSize=16;" vertex="1" parent="5wVH7uqxwEc0x4y0ZoIM-1">
          <mxGeometry y="30" width="201.50000000000023" height="40" as="geometry" />
        </mxCell>
        <mxCell id="5wVH7uqxwEc0x4y0ZoIM-3" value="id" style="shape=partialRectangle;html=1;whiteSpace=wrap;connectable=0;overflow=hidden;top=0;left=0;bottom=0;right=0;pointerEvents=1;fontSize=16;fillColor=#d5e8d4;strokeColor=#82b366;" vertex="1" parent="5wVH7uqxwEc0x4y0ZoIM-2">
          <mxGeometry width="60" height="40" as="geometry">
            <mxRectangle width="60" height="40" as="alternateBounds" />
          </mxGeometry>
        </mxCell>
        <mxCell id="5wVH7uqxwEc0x4y0ZoIM-4" value="Long" style="shape=partialRectangle;html=1;whiteSpace=wrap;connectable=0;overflow=hidden;top=0;left=0;bottom=0;right=0;pointerEvents=1;fontSize=16;fillColor=#d5e8d4;strokeColor=#82b366;" vertex="1" parent="5wVH7uqxwEc0x4y0ZoIM-2">
          <mxGeometry x="60" width="60" height="40" as="geometry">
            <mxRectangle width="60" height="40" as="alternateBounds" />
          </mxGeometry>
        </mxCell>
        <mxCell id="5wVH7uqxwEc0x4y0ZoIM-5" value="PK" style="shape=partialRectangle;html=1;whiteSpace=wrap;connectable=0;overflow=hidden;top=0;left=0;bottom=0;right=0;pointerEvents=1;fontSize=16;fillColor=#d5e8d4;strokeColor=#82b366;" vertex="1" parent="5wVH7uqxwEc0x4y0ZoIM-2">
          <mxGeometry x="120" width="82" height="40" as="geometry">
            <mxRectangle width="82" height="40" as="alternateBounds" />
          </mxGeometry>
        </mxCell>
        <mxCell id="5wVH7uqxwEc0x4y0ZoIM-6" value="" style="shape=tableRow;horizontal=0;startSize=0;swimlaneHead=0;swimlaneBody=0;strokeColor=inherit;top=0;left=0;bottom=0;right=0;collapsible=0;dropTarget=0;fillColor=none;points=[[0,0.5],[1,0.5]];portConstraint=eastwest;fontSize=16;" vertex="1" parent="5wVH7uqxwEc0x4y0ZoIM-1">
          <mxGeometry y="70" width="201.50000000000023" height="40" as="geometry" />
        </mxCell>
        <mxCell id="5wVH7uqxwEc0x4y0ZoIM-7" value="nome" style="shape=partialRectangle;html=1;whiteSpace=wrap;connectable=0;overflow=hidden;top=0;left=0;bottom=0;right=0;pointerEvents=1;fontSize=16;fillColor=#d5e8d4;strokeColor=#82b366;" vertex="1" parent="5wVH7uqxwEc0x4y0ZoIM-6">
          <mxGeometry width="60" height="40" as="geometry">
            <mxRectangle width="60" height="40" as="alternateBounds" />
          </mxGeometry>
        </mxCell>
        <mxCell id="5wVH7uqxwEc0x4y0ZoIM-8" value="String" style="shape=partialRectangle;html=1;whiteSpace=wrap;connectable=0;overflow=hidden;top=0;left=0;bottom=0;right=0;pointerEvents=1;fontSize=16;fillColor=#d5e8d4;strokeColor=#82b366;" vertex="1" parent="5wVH7uqxwEc0x4y0ZoIM-6">
          <mxGeometry x="60" width="60" height="40" as="geometry">
            <mxRectangle width="60" height="40" as="alternateBounds" />
          </mxGeometry>
        </mxCell>
        <mxCell id="5wVH7uqxwEc0x4y0ZoIM-9" value="Not Null" style="shape=partialRectangle;html=1;whiteSpace=wrap;connectable=0;overflow=hidden;top=0;left=0;bottom=0;right=0;pointerEvents=1;fontSize=16;fillColor=#d5e8d4;strokeColor=#82b366;" vertex="1" parent="5wVH7uqxwEc0x4y0ZoIM-6">
          <mxGeometry x="120" width="82" height="40" as="geometry">
            <mxRectangle width="82" height="40" as="alternateBounds" />
          </mxGeometry>
        </mxCell>
        <mxCell id="5wVH7uqxwEc0x4y0ZoIM-10" value="" style="shape=tableRow;horizontal=0;startSize=0;swimlaneHead=0;swimlaneBody=0;strokeColor=inherit;top=0;left=0;bottom=0;right=0;collapsible=0;dropTarget=0;fillColor=none;points=[[0,0.5],[1,0.5]];portConstraint=eastwest;fontSize=16;" vertex="1" parent="5wVH7uqxwEc0x4y0ZoIM-1">
          <mxGeometry y="110" width="201.50000000000023" height="40" as="geometry" />
        </mxCell>
        <mxCell id="5wVH7uqxwEc0x4y0ZoIM-11" value="raça" style="shape=partialRectangle;html=1;whiteSpace=wrap;connectable=0;overflow=hidden;top=0;left=0;bottom=0;right=0;pointerEvents=1;fontSize=16;fillColor=#d5e8d4;strokeColor=#82b366;" vertex="1" parent="5wVH7uqxwEc0x4y0ZoIM-10">
          <mxGeometry width="60" height="40" as="geometry">
            <mxRectangle width="60" height="40" as="alternateBounds" />
          </mxGeometry>
        </mxCell>
        <mxCell id="5wVH7uqxwEc0x4y0ZoIM-12" value="enum" style="shape=partialRectangle;html=1;whiteSpace=wrap;connectable=0;overflow=hidden;top=0;left=0;bottom=0;right=0;pointerEvents=1;fontSize=16;fillColor=#d5e8d4;strokeColor=#82b366;" vertex="1" parent="5wVH7uqxwEc0x4y0ZoIM-10">
          <mxGeometry x="60" width="60" height="40" as="geometry">
            <mxRectangle width="60" height="40" as="alternateBounds" />
          </mxGeometry>
        </mxCell>
        <mxCell id="5wVH7uqxwEc0x4y0ZoIM-13" value="Not Null" style="shape=partialRectangle;html=1;whiteSpace=wrap;connectable=0;overflow=hidden;top=0;left=0;bottom=0;right=0;pointerEvents=1;fontSize=16;fillColor=#d5e8d4;strokeColor=#82b366;" vertex="1" parent="5wVH7uqxwEc0x4y0ZoIM-10">
          <mxGeometry x="120" width="82" height="40" as="geometry">
            <mxRectangle width="82" height="40" as="alternateBounds" />
          </mxGeometry>
        </mxCell>
        <mxCell id="5wVH7uqxwEc0x4y0ZoIM-14" value="Sim" style="text;html=1;align=center;verticalAlign=middle;whiteSpace=wrap;rounded=0;" vertex="1" parent="1">
          <mxGeometry x="465" y="323.5" width="60" height="30" as="geometry" />
        </mxCell>
        <UserObject label="Não" placeholders="1" name="Variable" id="5wVH7uqxwEc0x4y0ZoIM-15">
          <mxCell style="text;html=1;strokeColor=none;fillColor=none;align=center;verticalAlign=middle;whiteSpace=wrap;overflow=hidden;" vertex="1" parent="1">
            <mxGeometry x="354" y="412" width="80" height="20" as="geometry" />
          </mxCell>
        </UserObject>
        <mxCell id="5wVH7uqxwEc0x4y0ZoIM-16" value="retorna 201 e o Cachorro" style="whiteSpace=wrap;html=1;rounded=0;" vertex="1" parent="1">
          <mxGeometry x="362" y="539.5" width="120" height="60" as="geometry" />
        </mxCell>
      </root>
    </mxGraphModel>
  </diagram>
</mxfile>
